<?xml version="1.0" standalone="no"?><!DOCTYPE svg PUBLIC "-//W3C//DTD SVG 1.1//EN" "http://www.w3.org/Graphics/SVG/1.1/DTD/svg11.dtd"><svg t="1584009941314" class="icon" viewBox="0 0 1024 1024" version="1.1" xmlns="http://www.w3.org/2000/svg" p-id="2087" width="32" height="32" xmlns:xlink="http://www.w3.org/1999/xlink"><defs><style type="text/css"></style></defs><path d="M512 0C229.216 0 0 229.216 0 512s229.216 512 512 512 512-229.216 512-512S794.784 0 512 0zM320 512c0-106.048 85.952-192 192-192s192 85.952 192 192-85.952 192-192 192S320 618.048 320 512zM925.984 683.488 925.984 683.488l-177.408-73.504C761.088 579.808 768 546.72 768 512s-6.912-67.808-19.456-97.984l122.112-50.592 55.296-22.912C947.904 393.344 960 451.264 960 512 960 572.736 947.872 630.656 925.984 683.488L925.984 683.488zM683.488 98.016 683.488 98.016 683.488 98.016l-73.504 177.408C579.808 262.912 546.72 256 512 256s-67.808 6.912-97.984 19.456l-34.464-83.2-39.04-94.24C393.344 76.128 451.264 64 512 64 572.736 64 630.656 76.128 683.488 98.016zM98.016 340.512l94.24 39.04 83.2 34.464C262.912 444.192 256 477.28 256 512s6.912 67.808 19.456 97.984l-177.408 73.504C76.128 630.656 64 572.736 64 512 64 451.264 76.128 393.344 98.016 340.512zM340.512 925.984l22.912-55.296 50.592-122.112C444.192 761.088 477.28 768 512 768s67.808-6.912 97.984-19.456l73.504 177.408 0 0 0 0C630.656 947.872 572.736 960 512 960 451.264 960 393.344 947.872 340.512 925.984z" p-id="2088" fill="#17a2b8"></path></svg>